<?xml version="1.0" encoding="utf-8"?>
<svg version="1.1" id="Y" xmlns="http://www.w3.org/2000/svg" xmlns:xlink="http://www.w3.org/1999/xlink" x="0px" y="0px"
	 viewBox="0 0 1000 1000" style="enable-background:new 0 0 1000 1000;" xml:space="preserve">
<style type="text/css">
	.st0{fill:#FFFFFF;}
	.st1{fill-rule:evenodd;clip-rule:evenodd;fill:#333333;}
</style>
<circle class="st0" cx="500" cy="500" r="500"/>
<path id="L" class="st1" d="M641,742.7c15.3,0,28.4-4.9,39-14.6c10.7-9.7,18.9-27.3,24.5-52.6c4.9-22,2.8-37.7-6.5-47.3
	c-9.3-9.5-25.1-14.3-47.5-14.3c-4.6,0-11.9,0.4-22.1,1.2c-23.7,2.1-60.8,3.9-111.4,5.6l-34.5,1.2c4-19.9,11.4-53.7,22.1-101.4
	l22-98.3l8.9-39.8c3.4-15.3,6.4-30,8.9-43.9c2.5-13.9,3.7-25.4,3.7-34.5c0-12.8-6.3-22.9-18.7-30.2c-12.5-7.2-29.7-10.9-51.7-10.9
	c-17.4,0-30.7,4.6-39.8,13.7c-9.1,9.1-16.1,24.7-21,46.7l-14.6,67.8l-29.2,127.5c-14,58.9-24,101.6-30,128.1
	c-5.4,24.1-7.3,42.7-5.7,56c1.6,13.3,7.2,22.7,17,28.3c9.7,5.6,24.3,8.4,43.8,8.4c7.9,0,13.9-0.2,18.2-0.6
	c23.6-1.7,55.7-2.5,96.4-2.5c25.3,0,49.9,0.4,73.7,1.2c3.7,0,11.2,0.8,22.5,2.5C623.7,741.9,634.3,742.7,641,742.7L641,742.7
	L641,742.7z"/>
</svg>
