<svg xmlns="http://www.w3.org/2000/svg" width="1000" height="1000" viewBox="0 0 1000 1000">
  <defs>
    <style>
      .cls-1 {
        fill: #333;
        fill-rule: evenodd;
      }
    </style>
  </defs>
  <path id="L" class="cls-1" d="M640.981,742.692q23.005,0,39.047-14.618,16.023-14.623,24.544-52.563,7.394-32.964-6.5-47.276t-47.487-14.307q-6.852,0-22.051,1.245-35.544,3.118-111.357,5.6l-34.492,1.244q6.072-29.857,22.124-101.393l22.049-98.283,8.931-39.811q5.16-23.006,8.9-43.854t3.7-34.524q-0.034-19.274-18.736-30.169-18.714-10.875-51.675-10.885-26.127,0-39.771,13.684t-21.041,46.654l-14.588,67.8-29.23,127.519q-21.071,88.335-29.99,128.141-8.1,36.082-5.717,55.984t16.977,28.3q14.591,8.4,43.836,8.4,11.81,0,18.179-.622,35.39-2.493,96.353-2.488,37.935,0,73.744,1.244,5.6,0,22.458,2.488,21.837,2.48,31.788,2.489h0Z"/>
</svg>
